<?xml version="1.0" standalone="no"?>
<!DOCTYPE svg PUBLIC "-//W3C//DTD SVG 20010904//EN"
 "http://www.w3.org/TR/2001/REC-SVG-20010904/DTD/svg10.dtd">
<svg version="1.0" xmlns="http://www.w3.org/2000/svg"
 width="50.000000pt" height="76.000000pt" viewBox="0 0 50.000000 76.000000"
 preserveAspectRatio="xMidYMid meet">

<g transform="translate(0.000000,76.000000) scale(0.100000,-0.100000)"
fill="#000000" stroke="none">
<path d="M193 661 c-90 -23 -150 -99 -138 -176 12 -79 55 -111 194 -140 39 -8
85 -22 101 -30 53 -28 52 -98 -3 -139 -42 -31 -157 -26 -228 10 -44 22 -54 24
-66 12 -41 -42 52 -91 182 -96 79 -3 96 0 135 20 64 33 93 80 87 141 -8 84
-52 114 -221 147 -67 14 -116 52 -116 92 0 39 35 85 76 98 49 16 136 7 181
-20 42 -25 66 -20 61 12 -7 48 -159 91 -245 69z"/>
</g>
</svg>
